<svg xmlns="http://www.w3.org/2000/svg" width="41" height="20" fill="#1A1A1A">
  <path fill-rule="evenodd" d="m36.1 8.1-1.4-4.4v-.2l-.2-.4c-.1 0-.1.1-.2.2l-1.7 4.8c0 .2-.1.3-.1.4 0 .2.2.3.4.3h2.8c.3 0 .5 0 .5-.2s-.1-.3-.1-.5Zm-4.3.4L34.7.3c0-.2.1-.3.2-.3s.2.1.2.3l2.5 8.2 1.2 4 .2.6c.3.9.5 1.5.7 1.7.1.2.5.4 1 .5.2.1.3.2.3.3 0 .1-.1.2-.2.2h-.4c-.3-.1-.8-.1-1.5-.1-.8 0-1.3 0-1.5.1h-.3c-.1 0-.2-.1-.2-.2s.1-.2.2-.3h.3c.3-.1.4-.4.4-.8s-.2-1.2-.5-2.3l-.5-1.5c-.1-.4-.2-.6-.2-.7-.1-.1-.3-.1-.6-.1h-3.1c-.4 0-.7.1-.8.1-.1.1-.2.4-.4.9l-.6 1.7c-.2.7-.4 1.3-.4 1.6 0 .4.1.6.2.8.2.1.4.3.8.4.2 0 .3.1.3.2 0 .2-.1.2-.2.2h-1.1c-.3-.1-.6-.1-1-.1h-.4c-.3.1-.4.1-.4.1-.2 0-.3 0-.3-.2 0-.1.1-.2.2-.2l.3-.2c.1 0 .3-.2.4-.5.2-.3.4-.6.5-1l.3-.7 1.5-4.5Zm-11.5 0c.1 2.1.8 3.9 1.9 5.2 1 1.1 2.1 1.7 3.3 1.7 1.3 0 2.3-.6 3-1.7.8-1.2 1.2-2.7 1.2-4.5v-.7c-.1-2-.6-3.7-1.5-5.2C27.1 1.7 25.9.9 24.4.9c-1.2 0-2.3.6-3 1.8-.8 1.1-1.2 2.7-1.2 4.5 0 .1 0 1.1.1 1.3ZM7.5 8.1 6.1 3.7v-.2c-.1-.2-.2-.4-.3-.4 0 0-.1.1-.1.2L4 8.1c0 .2-.1.3-.1.4 0 .2.1.3.4.3h2.8c.3 0 .4 0 .4-.2v-.5ZM20 17.4c.1-.5.2-1 .5-1.6h-1.8c-.2 0-.3-.1-.5-.2v-.1l-.2-.2-4.5-6.1-.2-.3c-.1 0-.2-.1-.2-.1-.1 0-.2.1-.2.3v4c0 .9.1 1.5.3 1.7.2.3.6.5 1.2.6.1.1.2.1.2.2l.1.1c0 .1-.1.2-.3.2 0 0-.2 0-.4-.1-.2 0-2.5-.1-2.7-.1h-1.1c-.8 0-1.2 0-1.4.1h-.3c-.2 0-.2-.1-.2-.2s0-.2.2-.3h.2c.3-.1.5-.4.5-.8s-.2-1.2-.5-2.3l-.5-1.5c-.1-.4-.2-.6-.3-.7 0-.1-.2-.1-.5-.1H4.3c-.5 0-.7.1-.8.1-.1.1-.3.4-.4.9l-.6 1.7c-.3.7-.4 1.3-.4 1.6 0 .4.1.6.2.8.2.1.4.3.8.4.2 0 .3.1.3.2 0 .2-.1.2-.3.2H2c-.2-.1-.6-.1-.9-.1H.7c-.3.1-.4.1-.5.1-.1 0-.2 0-.2-.2 0-.1.1-.2.1-.2l.4-.2c.1 0 .2-.2.4-.5s.4-.6.5-1l.3-.7 1.5-4.5L6 .3c.1-.2.2-.3.3-.3.1 0 .2.1.2.3L9 8.5l1.2 4 .2.6c.2.9.5 1.5.7 1.7 0 .1.1.1.2.2 0-.1.1-.1.1-.2.1-.4.2-1.1.2-2V3.3c0-.8-.1-1.4-.2-1.7-.1-.3-.4-.5-.7-.6l-.5-.1c-.1-.1-.2-.1-.2-.2 0-.2.1-.3.2-.3s.2 0 .4.1h2.7c.3 0 .4-.1.4-.1.2 0 .3.1.3.2s-.1.2-.3.3c-.3.2-.5.4-.6.7-.1.2-.2.7-.2 1.5v4.4c0 .1 0 .2.1.2l.1-.1.2-.2 3.6-4.2c.6-.7.9-1.2.9-1.6 0-.4-.2-.6-.6-.7-.3 0-.4-.1-.4-.2 0-.2.1-.3.2-.3s.2 0 .3.1h2.9c.1-.1.2-.1.3-.1.1 0 .2.1.2.2 0 .2-.1.3-.4.4-.5.1-1.5 1.1-2.9 2.8l-3 3.4c-.1.1-.1.3-.2.4 0 .1.1.2.3.4l.3.5 4.1 5.6c.5.6 1 1 1.6 1.2h.2c.2-.2.4-.4.7-.6-1.6-1.6-2.5-3.7-2.5-6.2 0-.1-.1-.2-.1-.3 0-2.1.5-3.9 1.4-5.3C21.3 1.1 22.9.3 24.9.3c1.8 0 3.2.7 4.4 2.1 1.1 1.5 1.6 3.4 1.6 5.7v.4c0 1.4-.3 2.6-.7 3.7-.6 1.2-1.3 2.2-2.2 2.9-.3.2-.6.3-.9.5-.3.1-.7.3-1.1.4.6.4 1 .6 1.2.8l.8.7.1.1.5.5c.5.4 1 .6 1.3.6.4 0 .9-.1 1.2-.4.1-.1.2-.1.3-.1.1 0 .1 0 .1.2s-.2.5-.8.8c-.5.3-1.1.4-1.6.4-.7 0-1.5-.3-2.4-1-.6-.5-1-.8-1.3-1-.1 0-.1-.1-.2-.1l-1.4-1c-.8-.6-1.5-.9-1.9-.9-.3 0-.6.2-.9.6-.3.3-.5.8-.6 1.3v.1c0 .2-.1.3-.2.3s-.1-.1-.2-.2v-.3Z" clip-rule="evenodd"/>
</svg>
