<svg xmlns="http://www.w3.org/2000/svg" width="48" height="48" fill="none">
  <path fill="#fff" d="M34.535 26.75c-.137-1.498-.962-3.782-2.173-6.106-.605-1.224-1.802-3.067-1.802-3.067-.178-.275-.275-.399-.275-.399a183.54 183.54 0 0 0-1.237-1.774s-.055-.082-.152-.22c-.027-.041-.069-.096-.096-.138a4.265 4.265 0 0 0-.275-.343 10.513 10.513 0 0 0-1.155-1.28l-.042-.04a1.353 1.353 0 0 1-.15-.138c-.689-.564-1.514-.88-2.27-1.06h-.014c-.096-.027-.206-.04-.303-.054h-.013c-.055-.014-.097-.014-.152-.028h-.013a7.148 7.148 0 0 0-.716-.082 10.329 10.329 0 0 0-1.65.068c-1.375.234-2.393.702-3.108 1.17-.042.027-.083.068-.124.096-.894.577-1.582 1.375-1.953 2.475a16.577 16.577 0 0 0-.619 2.641s0 .041-.014.11c-.069.399-.124.798-.165 1.21-.151 1.1-.357 2.71-.509 4.168-.041.399-.082.825-.123 1.265v.028c-.124 1.526-.152 3.218.137 4.373.619 2.834 2.792 4.511 5.584 5.268.523.179 1.142.289 1.912.357.385.042.784.083 1.183.097l.357.014c4.855.096 9.999-2.421 9.985-7.799-.014-.261-.027-.536-.055-.811Zm-11.154-3.974a1.902 1.902 0 0 1-1.898-1.898c0-1.045.853-1.898 1.898-1.898s1.898.853 1.898 1.898a1.902 1.902 0 0 1-1.898 1.898Zm4.58-2.118c-.674 0-1.224-.55-1.224-1.224 0-.674.55-1.224 1.224-1.224.674 0 1.224.55 1.224 1.224 0 .674-.55 1.224-1.224 1.224Z"/>
</svg>
