<svg xmlns="http://www.w3.org/2000/svg" width="64" height="17" fill="#1A1A1A">
  <g opacity=".9">
    <path d="M2.147 2.767v1.11c.702-.858 1.738-1.403 3.121-1.403 2.59 0 4.403 2.18 4.403 5.009 0 2.787-1.813 5.03-4.403 5.03-1.383 0-2.42-.566-3.121-1.425v5.493H0V2.767h2.147Zm2.671 7.673c1.595 0 2.706-1.267 2.706-2.964 0-1.718-1.09-2.944-2.706-2.944-1.58 0-2.671 1.226-2.671 2.944 0 1.704 1.097 2.964 2.671 2.964ZM15.36 2.474c2.925 0 4.894 2.221 4.894 5.03 0 2.827-1.97 4.988-4.893 4.988-2.924 0-4.914-2.16-4.914-4.989 0-2.808 1.99-5.03 4.914-5.03Zm0 7.953c1.596 0 2.747-1.227 2.747-2.924 0-1.697-1.151-2.964-2.746-2.964-1.615 0-2.767 1.267-2.767 2.964 0 1.69 1.152 2.924 2.767 2.924ZM22.503 2.767V0h2.147v2.767h4.641V4.64H24.65v4.307c0 1.05.586 1.595 1.5 1.595.933 0 1.54-.743 1.444-2.01l2.045.197c.116 2.317-1.404 3.762-3.408 3.762-2.317 0-3.72-1.363-3.72-3.605V4.64h-2.27V2.767h2.262ZM34.736 2.474c1.384 0 2.42.565 3.122 1.404v-1.05h2.147v9.37h-2.147v-1.11c-.702.859-1.731 1.404-3.121 1.404-2.57 0-4.403-2.181-4.403-5.01 0-2.766 1.833-5.008 4.402-5.008Zm.45 7.953c1.581 0 2.672-1.227 2.672-2.944 0-1.677-1.09-2.944-2.672-2.944-1.594 0-2.705 1.267-2.705 2.944 0 1.71 1.09 2.944 2.705 2.944ZM43.235 2.767V0h2.146v2.767h4.641V4.64h-4.64v4.307c0 1.05.585 1.595 1.499 1.595.933 0 1.54-.743 1.444-2.01l2.045.197c.116 2.317-1.404 3.762-3.408 3.762-2.317 0-3.72-1.363-3.72-3.605V4.64h-2.27V2.767h2.263ZM55.98 2.474c2.923 0 4.892 2.221 4.892 5.03 0 2.827-1.97 4.988-4.893 4.988-2.924 0-4.914-2.16-4.914-4.989.007-2.808 1.99-5.03 4.914-5.03Zm0 7.953c1.594 0 2.745-1.227 2.745-2.924 0-1.697-1.151-2.964-2.746-2.964-1.615 0-2.767 1.267-2.767 2.964 0 1.69 1.152 2.924 2.767 2.924ZM61.07 3.223a1.588 1.588 0 0 1 1.356-.756 1.589 1.589 0 0 1 1.363.756c.143.232.211.491.211.77 0 .287-.068.539-.211.777a1.589 1.589 0 0 1-1.363.757 1.588 1.588 0 0 1-1.356-.756 1.439 1.439 0 0 1-.212-.77c0-.287.069-.54.212-.778Zm2.385.177a1.084 1.084 0 0 0-.43-.429 1.211 1.211 0 0 0-1.192 0c-.177.102-.32.245-.423.43a1.218 1.218 0 0 0-.156.606 1.168 1.168 0 0 0 .579 1.015 1.211 1.211 0 0 0 1.193 0c.184-.102.327-.245.429-.422.102-.177.157-.375.157-.593a1.293 1.293 0 0 0-.157-.607Zm-.975-.21c.191 0 .348.047.464.15a.502.502 0 0 1 .177.394.51.51 0 0 1-.075.273.562.562 0 0 1-.225.19l.327.6h-.443l-.272-.51h-.191v.51h-.402V3.19h.64Zm-.245.762h.225c.075 0 .136-.02.177-.06a.197.197 0 0 0 .068-.158.221.221 0 0 0-.061-.163c-.041-.041-.102-.055-.184-.055h-.225v.436Z"/>
  </g>
</svg>
