<svg xmlns="http://www.w3.org/2000/svg" width="104" height="7" fill="none">
  <path fill="#76D2C7" d="M14.278 3.813c-.25-.08 1.186-.04.423 0-.346 0-.871.08-.423 0Zm-3.147-1.158h-.025c.199.12-.545.26-.955.2.557 0 .93-.18.98-.2Zm15.755 1.178s-1.5.14-1.462.04c.16 0 .237-.02.192-.06h1.27v.02Zm11.44-.839c-.5-.08.699-.08.648-.02l-.648.02Zm-.538.56.186.08c.295.159-.186-.08-.186-.08Zm1.3-1.657c.033-.12.424-.16.629-.26.154.14-.23.2-.628.26Zm12.807.1c-.077.12-.891.14-1.545.159.051-.14 1.134-.1 1.545-.16Zm38.321 2.235c-.468-.1.73-.04.654 0h-.654Zm-3.282-1.198c.289.08.898.22 1.449.18-.256.1.872.2-.058.18-.346-.1-.711-.2-1.64-.26.05-.04-.045-.12.256-.12l-.007.02Zm-2.333-.22c-1.602-.06-.653-.398.731-.259-.02.04.083.08.192.1-.903-.08-.948.04-.923.14v.02ZM74.2 2.716c.487-.06.724.06 1.5.06.39 0 .526-.18.884-.06-.326 0-.48.06-.474.14-.673-.04-.769.02-1.506-.02.077-.06-.276-.08-.404-.12Zm.949-.28c.166.08-.385.16-.455.08.352 0 .14-.08.455-.08Zm-3.218.12-.077.04.077-.04ZM52.927 3.673c.224-.1 1.205-.08 1.717-.12-.012.12-1.679.1-1.717.12Zm.429-1.297c-.32-.08.75-.08.654 0-.128 0-.263 0-.218.02h-.436v-.02Zm6.018.04c.039-.04-.019-.1.231-.1.058.08 1.532.14.814.22 0-.08-.788-.06-1.045-.12Zm4.621-.44c.148-.08-.57-.319.071-.319.013.04.051.08.417.08-.193.08.352.28-.488.24Zm-1.512 0s1.205.06 1.045.16c-.007.02-.263 0-.545 0l-.737-.06c.038-.04-.02-.1.237-.08v-.02Zm3.057-.12c-.14-.08.859-.12.885-.06-.135 0-.257 0-.225.02.372 0 .551.04.635.08l-1.288-.04h-.007Zm2.154.939c-.052-.04.16-.12.23-.06.045.04-.16.12-.23.06Zm3.666-.819c.346-.04 1.25.06 1.487.12-.07.06-.942-.02-1.083.02.083.1.326.2.576.28.314 0 1.096.08 1.084 0 .884.22-1.084.06-1.494.16.23-.18-.795-.42-1.416-.66-.808-.08-.077.14-.885.06-.48-.04-.038-.18-.154-.26-.89-.059-.16.2-.705.2-.474 0-.057-.14-.166-.2-.628 0-.577.14-.91.2-.705 0-.141-.1-.846-.1.384-.06 1.096-.04.916-.199h-.871l-.033.12c-.435-.06-1.083-.08-1.038-.2-1.55 0-.18.32-.34.54.782.099 2.308.239 1.628.398-1.3-.259-2.55-.539-2.589-.938-.628 0-.68 0-1.301.02.346.08-.026.04-.032.12-.276-.16-1.109-.06-1.692-.18l-.07.32c-.815 0-1.039-.06-1.045-.16-.455.1-1.443-.2-1.724 0-.289-.02-.385-.08-.404-.14-.257 0-.193.06-.237.08-.795-.08-1.724-.16-1.654-.36-.564.06-.77.18-.711.34-.597-.08.262-.499-.34-.479l-.039.2c-.237.08-.243.12-.044.22-.097.04-.68 0-.45.12h-1.082c-.084-.12.487-.12 1.096-.1.083-.14.032-.26-.59-.3.25-.04.712-.06.673-.14-.218.04-.596.06-1.32.04.154.12-.263.12-.468.18-.449 0-.423-.1-.641-.14-.212.12-.692.12-.904.18-.519-.12.122-.4-1.05-.44.114.16.191.34.602.46-.84-.08-.917-.12-1.757-.02-.224-.02-.218-.08-.653-.08.455-.04.525-.16.468-.28-.263 0-.193.06-.231.1-.314 0-.628 0-.66-.04-.629.04.09.18.205.22-.237.1-.744-.2-.667.02-.455 0-.045-.14-.43-.16-.704.08.353.28-.46.32-.552 0-.424-.12-.43-.2-.218-.08-.385.12-.449.18-.532-.1-.442-.26-.205-.38-.647.04-.615.18-.89.28-.328-.02-.469-.08-.437-.16-.3 0-.288.18-.666.06-.545 0-.064.1 0 .12-.789.02-.301-.12-.436-.2-.391.04-.5.02-.436-.06-.173 0-.84.16-1.096.24.064.06.59-.04.654.06-.391.08-1.404-.1-2.186 0 .058.14-.192.299.455.359-.89.12-1-.18-.897-.38-1.128 0-1.038.16-1.282.28-.269-.12-1.653-.1-1.557-.26-.475 0-.462.08-.417.16-.615-.04.045-.14-.026-.2-1.185.02-1.345.18-1.922.3-1.282-.1-.551-.22-.513-.42-.32-.099-.109.12-.417.12-.474 0-.698-.02-.673-.1-.448.08-1.224.12-2.397.1-.48-.199-2.134-.219-2.743-.399-.378.04-.461.1-.385.2.276-.14.693-.06.686.08-.064.04-.384 0-.448-.02-.52 0 .05.12.256.12.756 0 .244-.14 1.07-.1.257.06-.038.02.673.06-.57.16-.243.22.302.359-1.045.14-.564-.28-2.218-.14.474-.18-.77 0-.936-.18-.359.2-1.737.08-1.66.3-.436-.02-.109-.18-.724-.18-.391.04-.096.18-1.045.14-.301-.06-.775-.08-.73-.18-.66.02-1.09.08-1.02.2.738-.12.82.06 1.558.04-.109.02-.212.06-.186.1-1.557-.04-2.109-.26-2.602-.48.596.04.686.3 1.615.18-.897-.08-1.365-.12-1.032-.379-.968.04-.756-.12-1.404-.14-.634.12 1.116.12.597.34h-1.34c-.083.14.327.18.545.24.474 0 .583-.04.872-.04.314 0 .217.08.282.12-1.193.02-1.834-.04-2.11-.18-.826.14-2.601.22-3.37.04-.289.02-.379.08-.372.14-.32-.02-.705-.06-.955-.08-.77.08-1.115.179-1.615.299-.628 0-.116-.16-.148-.22h.692c-.083-.08.032-.14.353-.16-.744-.1-1.256.08-1.263.16-.359-.04-.557-.08-.43.04-.557.02-.73-.02-.96-.06-.193.02-.295.06-.385.1-.455 0-.654-.06-.788-.14-.84.06.205.18.416.24-.211 0-.423 0-.493-.04-.43.06.936.08.833.2-.256-.04-.673-.06-1.378-.02-.02.06.263.06.243.02.507 0 .212.16.398.22-1.058-.06-.84-.3-.596-.46-.32.1-.827-.02-.026-.04-1.295-.1-2.109.22-2.91.34-.57-.18 1.116-.4 1.814-.56-1.512.08-3.044.4-2.525.779-.494 0-.218-.12-.397-.18-.539.06 0 .2-.43.26.449.1.256-.08.853-.06-.065.08-.302.16-.706.22 1.058.1.558.2.57.359.38.06.578-.26.174-.3.974.04.16.2.724.3-.09.06-.59.1-.75.16-.371 0-.576 0-.705-.04.705-.06.257-.34-.55-.34-.565.04.64.04.37.14-1.883-.04-.922-.519-.5-.739.911.1.687-.28.828-.339-1.699 0-1.077.559-2.673.36-.487.02.045.14-.032.199.301-.04.654-.08.545-.14.634.1-.494.28-.257.42-1.262-.16-.724-.16-.666-.42-.23.04-.551.06-1.083.08.153.18.82.26 1.006.5.423-.02.686 0 .718.04.282-.02.102-.08.09-.14 1.044.12-.065.339.602.578.192 0 .192 0 .18-.04h.435c-.378-.1-.461-.24-.59-.379 1.058.06 1.11.14 1.02.34.39-.02.423-.04.833-.06-.391.22.372.439-.039.638-.096.04-.48 0-.602.06-.083.02.622.16-.333.1l.224.22c.686-.06 1.513-.2.622-.24.134-.1.538-.12 1.205-.1.314.2-.942.3-1.039.48-.25 0-.23-.06-.3-.08-.168.02-.334.06-.424 0-.256.14-.474.339.205.399-.359.16-.025.2-.968.3.923-.02 1.064.119 1.141.279.199 0 .122-.04.135-.06.083-.1.378.06.84 0-.584-.06-.43-.18-.66-.24.044-.04.275 0 .608 0-.654-.06.084-.24-.654-.24.532-.06.584.08 1 .16.282-.04.475-.06.757-.08-.52-.12-.725-.299-.86-.459h.065c-.039 0-.385.1-.603.12-.192-.12 1-.36 1.616-.3h.019c.134 0 .237.04.288.08-.243 0-.23-.04-.288-.08h-.02c-.634.02-1.019.16-.41.24.289 0-.012-.1.327-.1.391.12.16.32.846.46-.198 0-.198-.04-.263-.06-.32.14-2.294.339-.608.459-.045-.08-.11-.16-.385-.18.135-.06.308 0 .782-.06 0 .08-.212.12 0 .22.98-.04-.077-.28.634-.22.57-.04-.333-.08-.14-.16.724.14.41-.04.07-.16h-.07l-.225-.079c.058-.04.205-.08.564-.08.545.08.34.3.59.42.801.08-.199-.16-.045-.28.372.16.782.3 1.397.4 1.256-.08 1.327.079 2.32.059.667 0 .34-.14.917-.16.788 0 .359.26.846.34.09-.18.711-.36-.128-.48.743 0 .365.16.833 0 .788.06-.917.28.59.28-.02-.1.41-.16.224-.3-.154-.08 1.057.06.769-.08.57.04.07.3.615.34.648-.06-.102-.16.013-.32.423 0 .135.14.494.14.269-.04.243-.12.519-.18.814.04 1.468.08 2.012-.08.622.08.09.28.199.42.192-.18.602.04.545-.14.763-.04.763.1 1.218 0-.737-.299 1.269-.26 1.935-.379.545.06-.045.24-.282.36 1-.02 1.07-.18 1.564-.28.487.22.346-.04 1.006-.1.417.16.846-.06.872.12.564.04-.23-.16-.083-.26.346-.04.512-.1.359-.2.737.06-.558.26.89.18.18.1-.179.12-.153.2.294-.08.73-.12 1.205-.18.384.16-.693.1-.558.22.493-.04 1.352-.2 1.256.02.73 0 .551-.14.77-.22.839.04-.16.26.512.38.474-.06.436-.22.128-.32.475.16.91.04 1.66 0-.07.14-1.403.1-.967.32.672.02 1.236.06 1.679.12.359-.14.455-.54-1.128-.48.532-.1 1.14-.08 1.429-.16.455.12-.538.56.73.64.18-.2-.019-.26-.083-.48h.423c.385.06.218.22.462.32.416-.16-.449-.38-.301-.6.358.1.307.28.679.38.276-.02.378-.06.404-.12.442 0 .102.12.23.16.526 0 .398-.1.391-.2.346.1.635 0 .61-.1.243 0 .185.06.224.1 1.474-.08-.302-.299.166-.379-.121.02.827.12.436.16.18.08.737 0 .66-.08.212.08 1.353.14.814.2.487.12.577-.1 1.039-.08-.372.14-.904.26-.391.439.775-.06.057-.18.186-.32.769 0 .525.12.84.16.627 0 1.063-.06 1.037-.18 1 .04-.378.24.635.3.468-.08.436-.22.622-.34.262.16 1.012.24 1.66.32.929 0 .794-.14 1.256-.2 0 .16 1.064.2 2.07.22-.199.2-.788.32-2.102.32v.12c2.288 0 3.134-.6 1.083-.82.16-.02.385-.04.635-.06.596.06.39.3.788.46.192.04.769.02.615.1.244-.1.52-.02.635-.12.378.06.5.16 1.012.2.11-.08.5-.16.468-.34-.43 0-.43.08-.64.12-.257 0-.417-.04-.41-.1.499 0 .32 0 .236-.16-.59-.04-.55.04-1.05 0 .076-.08.23-.14.647-.16.634 0 1.025.22 1.256 0 .557 0 .743.08.602.2.692 0 .814-.1 1.083-.18.545 0-.044.1.18.16.038 0 .346-.04.43-.02 1.005.2.864.7 3.486.72.032-.2.167-.42-.103-.58.795.04.225.26.353.4.737 0 .417-.2.66-.12.48-.02-.243-.16.051-.26.18.04 1.096.16.61.18.531.08.91 0 1.505-.06-.615.18.103.22-.076.34.179.06.737-.1.884-.18 1.18.16 2.147.34 2.871.539.128-.12.962-.06 1.27.04.724-.1-.834-.2-1-.28-.289 0-.2.08-.244.12-1.41-.44 1.416-.24 1.634-.579 1.039.08-.82.4 1.18.42.846-.22 1.653-.28 2.262-.5.308.06.308.16.372.24-1.295.02-1.32.08-1.782.26.526.02 1.02.04 1.282 0 .474.04.045.179.147.259-.852 0-1.147.18-1.929.04-.34.08-.045.12.372.2.166-.18.5.179 1.256.1.058-.08-.295-.12-.615-.08.07-.08.647-.08 1.09-.1-.122-.16.288-.22.3-.34.385.06 1.007.08.802.2.506-.12-.36-.42-.07-.54h.435c.82.1-.026.12-.077.28.962.06 2.558.04 2.045.38.307.06.263-.22.5-.26.307.12.39.18.436 0 .185 0 .679.14.173.14.128.06 1.96-.14 1.903.08.41 0 .41-.08 1.077 0 .385-.16-.667-.28-.109-.36.314.24 2.057.18 2.013.48.519 0 .442.08 1.05.08-.627.259 1.667.239 1.584.458.365 0 .23-.359.769-.399.506.16 1.39.28 2.243.4.73-.16-.365-.4-.468-.56-.461-.04-1.147-.08-1.243-.16.243-.08.557.06.84.08.871.14 1.243.3 1.563.5-.09.24.596-.1.25-.12.084-.06.558.08.667-.02-.02.06.622.14.564.28.276-.02.455 0 .43.06.615.04-.2-.22.698-.12.628.06-.16.1-.051.16.583-.04.737.099.608.199.552 0 .34-.24.116-.38.308.18 1.205.32 2.064.48.903-.22-1.02-.44-1.128-.68.942.08.948.22 2.115.28l-.045.16c.147.06.237 0 .23-.06.308-.1 1.039.1.898-.08.73.06.993.16.795.3.519-.1.711 0 1.307.04-.23-.22 1.442-.06 1.814-.26l.43.06c-.66.02-.494.18-1.577.18.147.1.352.18.82.24.385 0 .506-.02.468-.1.205 0 .865.06.68-.12.288.02.16.1.185.14.391-.02.872-.12.487-.22.834.06 1.237.16 1.705.24-.365.08-.788-.16-1.294-.08-.212.08.544.1.621.16-.013.159-1.18-.08-1.121.119 1.416.22 1.884-.18 3.288.02-.866 0 .314.12-.045.26.211 0 .173-.02.23-.04.103-.04.276.04.648.04-.173-.14.711-.16.269-.26.667.04.558.08 1.282.2-.417-.42.91-.56-.385-.859.526.14-.878-.06-1.628-.14.936.22-.147.36-.294.42 0 .12.474.319.153.359-1.57-.14.225-.54-.564-.52.84-.059.718-.159.064-.338.436 0 .994 0 1.725.12-.372-.26.179-.58-.52-.8.609 0 .789.04.013-.099.833.04.122-.26.692-.28-.365-.02-.519-.08-.397-.219-.263 0-.442 0-.436.06-.179-.08-.564-.14-.82-.22.884.08-.481-.24.48-.26.212.06.462.28.167.26.417.08 1.513-.02.891-.2-.667.06-1.09-.179-2.089-.259.423.18-.917.34-.526.5l-.423-.06c-.115-.08-.372-.2.455-.12-.449-.06-.468-.14-.384-.24-.622-.08-.385.04-.443.1-.423-.28-1.955-.52-1.115-.799-.846-.08-1.487 0-1.455-.16-.84 0-.006.16.59.24-.058.08-.417.1-.475.2l-1.262-.08c.045-.08 1.34-.18.692-.2-1.199.08-.64.36-.808.68-.487-.28-.237-.56-.634-.9-1.032-.139-1.628-.199-2.038-.339-.186-.06.634-.24-.558-.279.096.2.372.4 1.128.539-.936.06-1.019.3-.557.479 1.205.08 1.73.22 1.205.32-.308-.04.07-.04-.18-.14-2.14-.16-1.673-.5-1.525-.699-.808.02-.705-.08-.795-.2-1.051-.08-1.32 0-1.923 0 1.045.24-1.371.24-1.025.54-1.026-.08.16-.16-.122-.3-.5-.04-.474.04-1.064-.02-.026-.14.795-.04 1.282 0-.039-.16.154-.26.327-.36.269.06.384.12.833.08-.032-.04-.205-.02-.212 0-.352-.18.122-.279-.288-.459l-.833-.04c.307.06.698.12.782.2-.231.08-.225.22-.91.2.615.3-1.885.2-2.487.359-.962-.2-.02-.26-.263-.519-.27 0-.551.24-1.18.26-.615 0-.538-.08-1.063-.08-.552.14-.699.339-1.244.479-1.359-.1-1.596-.12-2.076-.32.98.04.865.16 1.903.18-.013-.08.007-.16.481-.14-.128-.12-1.968-.08-1.449-.26-.666-.04-.628.04-.897.08-.737-.08-.365-.12-.602-.179-1.026 0-1.59-.28-2.276-.4.27.12.577.38 1.423.36-.32.16.603.12.763.36-.609-.08-.993-.18-1.449-.26-.487 0-.134.18-.288.24-.32-.1-.205-.24-.327-.36-.218-.12-.263.08-.25.12-.654 0-.365-.08-.397-.14-.558 0-1.077.02-1.532.04-.25-.02.058-.18-.801-.22-.507.08.583.18.34.34-.66 0-.481-.22-.648-.02-.609-.22-2.628-.3-2.89-.56-.488 0 .25.16-.064.26l.083.02Zm23.227 1.238c.442-.2-.18-.26-.743-.42 1.166.08 1.532.34.743.42Zm.878.798s.122-.18.231-.08c.16.14-.154.14-.23.08ZM70.027 2.935l.019-.06h.442c.346.08.154.16-.23.04-.02 0-.04.04-.225.02h-.006Zm-2-.64s.122-.179.237-.08c.154.12-.154.16-.237.08Zm-44.564-.319s-.077-.1.397-.1l.02.06c-.218 0-.25.02-.423.04h.006Zm-17.26.7c-.693-.1-.372-.34-.173-.44.557-.04 1.346.08.8.14-.038-.04-.647-.02-.66 0 .27.04.033.359.033.28v.02Zm.8.638c-.07-.08.283-.1.046-.2.525-.02 1.032-.04 1.128.04-1.128.04-.289.1-1.173.16Zm.443.499c.462 0-.449-.14.154-.06.102.06.333-.02.449 0-.16 0-.225.04-.16.06h.839c-.09.06.936.1.365.16-.224-.12-1.224-.1-1.647-.18v.02Zm.333-.1s-.955-.04-.294-.08c-.033.08.903-.1 1.076 0-.314 0-.782 0-.814.06.116 0 .263 0 .026.04l.006-.02Zm1.263.48c-.096-.06-.327.02-.436 0 .404-.04-.077-.16.718-.14-.064.06 0 .14-.282.16v-.02ZM8.69 2.734c-.731.08-.218-.1-.731-.08.301-.26-.84-.719-.039-.858.212.34.379.639.77.938Zm.185.758c-.134-.12-.18-.22.2-.299.108.12.082.22-.2.3Zm1.02 1.218c-.09-.04.025-.12.153-.06.09.04-.025.12-.154.06Zm.89-.18c-.333-.08.725-.14.154-.06.051.04.051.12-.154.06ZM9.58 2.456c.488-.02.827 0 .917.04-.487.02-.82 0-.917-.04Zm1.308 1.398c-.09-.08-.16-.16.295-.16-.045.06.423.18-.295.16Zm1.109.898c-.064-.08.275-.1.057-.2.41.02.968.02 1.11.1-.648 0-.757.06-1.167.1Zm-1.545-2.315c-.474-.16.628-.32 1.134-.28-.256 0-.205.06-.153.1-.507 0-.82.04-.833.08 0 .04.108.08-.148.1Zm1.34 1.497c.358 0 .55 0 .673.04-.36 0-.545 0-.673-.04Zm.833.26c-.058-.04-.199-.22.115-.14.058.04.192.219-.115.14Zm-1.352-2.157c-.052-.02-.052-.18.153-.1.282.12-.006.16-.153.1Zm2.089 2.615c-.083-.04.038-.12.16-.06.083.04-.038.12-.16.06Zm.416-.3c-.09-.04.045-.119.16-.059.084.04-.044.12-.16.06Zm-1.23-2.115s-.103-.08.154-.1c.346.06 1.083.04 1.198.14-.68.04-.557-.08-1.352-.04Zm2.705 1.816-.039-.06h.41l.039.06h-.41Zm-.077-2.255h.66c-.167.18 1.474.04 1.468.22-1.051 0-1.641-.1-2.128-.22Zm6.339 2.335c.134.22-1.808 0-2.013.1.032-.08.141-.14.538-.18.11.12.789.14 1.481.08h-.006Zm-.084.28c.276.12-1.378.16-1.218 0h1.218Zm-1.064-2.016c-.128-.1-1.179-.04-1.173-.16.488 0 1.737.08 1.173.16Zm-.057 1.317-.058-.12c.788-.04.859.14.058.12Zm.096-.26c.359 0 .545 0 .654.06-.36 0-.545 0-.654-.06Zm1.378.26c-.192 0-.18-.18.186-.06.064 0-.058.06-.186.06Zm.916-1.477c.045-.04-1.012 0-.455-.06-.096.04 1.18-.04.455.06Zm.398 1.597c-.077-.04.083-.12.186-.06.07.04-.084.12-.186.06Zm.102-.28c.487-.08 1.359 0 .878.08.052-.08-.8-.02-.878-.08Zm2.301.54c-.66-.18.487-.08 0 0Zm.372-1.438c.365 0 .551 0 .666.06-.371 0-.557 0-.666-.06Zm.288.898c.212-.1-.352-.08-.461-.12.865.04 1.327 0 1.718.08 0 0 .16-.04.211 0-.346 0-.09.08-.39.1-.174-.06-.674-.12-1.071-.06h-.007Zm.52-1.756c-.507 0-.276-.2.384-.16-.077.06.352.18-.385.16Zm.897 2.255c-.039-.04-.103-.22.173-.12.038.04.102.22-.173.12Zm1-.18c-.039-.04-.096-.219.173-.119.038.04.096.22-.173.12Zm.705.28-.026-.1c.25 0 .596 0 .634.04-.294.04-.34.04-.608.06Zm-.167-1.397c.404.02.692-.1.859 0-.128 0-.801.08-.859 0Zm.968 1.277c.18-.1-.699-.22-.07-.279.102.06.576.24.07.28Zm.602-.1c-.057-.12.007-.199.36-.259.147.08-.212.24.268.26.302-.1.75 0 1.02-.14-.45.12-.674-.12-.238-.12.52.04.141.06.436.1.225-.04 1-.14 1.25-.06-.391 0-.109.1-.397.12-.366 0-.648 0-.84-.02.051.12-1.378.28-.942.479-.417-.1 0-.34-.917-.34v-.02Zm.962-1.337c1.365-.04.5.1 0 0Zm2.39 1.358c-.41-.1-.538-.2.372-.26.744.08-.032.16-.372.26Zm2.25-1.917c.096.12-1.18.2-1.487.16.449-.06.449-.18 1.487-.16Zm-.128.64c-.539.039-1.237-.06-.66-.1.032.06.711.02.66.1Zm-.885-.18c.853-.12.52.1 0 0Zm2.532-.44c.41 0-.128-.06.205-.06.013.02.039.04.218.04.051-.04.474-.04.647-.06.282.1-.833.16-1.076.08h.006Zm.34 1.178c.282 0 .628-.12.846-.02-.282 0-.635.12-.846.02Zm3.204.659c-1.07.16-.788-.36-.628-.04.302-.04.507-.04.628.04Zm.82-.699c-.538 0-1.281.2-1.268.06.301 0 1.666-.14 1.269-.06Zm3.436-1.258c.013.14-1.14.26-1.743.22.814-.04 1.23-.14 1.743-.22Zm-.474 1.518c.096-.1-1.16-.16-.628-.22.14.06 1.205.16.628.22Zm1.25.399s.083-.18.211-.1c.18.12-.122.16-.211.1Zm1.134-1.258c.878.2-.359.08 0 0Zm1.397-1.158c.18.06-.205.2-.442.1.359 0 .128-.08.442-.1Zm2.038 1.178s-1.153-.14-.621-.16c.134.04 1.307.12.621.16Zm.545.739c-.487-.06-.916 0-1.057-.04.256-.04.397-.08 1.07-.04l-.013.1v-.02Zm.5-.54c.141-.08-.23-.239.25-.259-.057.14.61 0 .86 0l-.027.16c-.794-.04-.698.06-1.09.08l.007.02Zm1.263-1.097c-.545.04-.622-.12-.199-.1.007 0 .026.04.212.04l-.013.06Zm1.275 2.455s-.006-.16.455-.14c-.109.06.25.2-.455.14Zm1.09-.1c-.314-.08.737-.08.647 0-.128 0-.256 0-.224.02h-.423v-.02Zm.32-.579s-.173.04-.211 0c.27 0 .301-.04.647 0 .096.2 1.224.26 1.628.42-.968-.1-1.423-.26-2.064-.4v-.02Zm2.23-1.477c-.653.06-1.486.2-1.96.12.108 0 1.019-.2 1.96-.12Zm-.493 1.358c-.269 0-1.057.06-1.07 0 .167 0 .25-.02.224-.06-.121 0-.243-.04 0-.04-.166.08 1.013 0 .84.08l.006.02Zm-.698-.779c-.116-.08.109-.12.66-.08.128.08-.455.06-.66.08Zm.43 2.116c-.7.06-1.302-.12-1.45-.22.853.04 1.52.08 1.45.22Zm1.089-1.158c-.475-.06-.814.06-.853-.02.468-.02.526-.12.891-.18.385.06-.192.08-.038.2ZM59.9 1.996c-.25.1-1.122-.12-.628-.12.032.04.333.04.64.04l-.012.06v.02Zm-.263 2.256c-.68 0-1.25-.16-.82-.18.038.04.237.02.43 0-.052.08.307.1.39.16v.02Zm-.513-.579c.385.04.725-.08.846 0-.134 0-.84.06-.846 0Zm2.167-.14c-.846 0-.667-.16.025-.12l-.025.12Zm.654-1.038s.115-.18.237-.08c.16.12-.148.16-.238.08Zm.32 1.478c-.34-.14 2.057 0 1.064.04-.038-.08-.93-.04-1.064-.04Zm.52.519c-.552 0-.764-.04-.616-.12.006-.02.256 0 .538 0 .282 0 .596.04.744 0-.218.14.57.18.352.34-.782-.02-.192-.2-1.019-.22Zm-.45-1.837c.295-.04.802 0 .846.06-.294.04-.647 0-.845-.06Zm4.205.46c.051-.06-1.769-.06-.833-.12.186.08.833 0 1.493.04-.038.04.013.1-.237.08-.038-.02.013-.06-.199-.06-.057.02-.019.06-.23.06h.006Zm-.904 1.077c.11-.06.404-.1.885-.1.243.14-.603.06-.885.1Zm1.859-.579c-.032-.02.115-.18.237-.08.154.12-.154.16-.237.08Zm.038.699s.141-.12.462-.14c.013.08-.141.12-.462.14Zm2.795-1.697c-.718-.14-1.205.22-1.955.02.801 0 .84-.18 1.98-.12l-.025.1Zm-1.654.579c.487 0 .801.04.833.1-.487 0-.8-.04-.833-.1Zm1.609.44s.026-.22.244-.12c.019.04-.026.219-.244.12Zm2.365 0c-.365.08-1.205.219-1.557.199.59-.06.8-.18 1.557-.2Zm-.16-.2c-.398-.02-1.295 0-1.045-.1l1.064.04-.02.06Zm.154 1.058c-.468-.16-1.596-.42-1.36-.56.475.16 2.167.36 1.36.56ZM71.5 3.114c-.045-.08.32-.1.878-.06.051.04.288.08.18.14-.61 0-.54-.06-1.058-.08Zm2.358-.738c-.044-.04.167-.12.231-.06.045.04-.166.12-.23.06Zm.013 2.335c.218-.08-1.294-.12-.384-.18.064.06 1.064.24.384.18Zm.366-.559c.012-.18 1.083-.08 1.531-.1-.153.1-1.205.04-1.531.1Zm1.737.699c.147-.22-1.494-.04-1.68-.14.205-.1.891-.12 1.538-.12.404.06-.422.16.398.12-.128.04.205.18-.256.14Zm-1.16-1.218c.531.02.672-.02 1.083 0 .128.08-.955.1-1.084 0Zm2.935-.459s-.263-.06-.186-.1h.64l-.025.12h-.423l-.006-.02Zm.096.4c.532 0 1.038.04 1.051.12-.378-.04-.878-.06-1.051-.12ZM79 3.333c-.449 0-.936-.12-.398-.12.039.04.334.06.398.12Zm2.256 1.138c1.378.04.436.12 0 0Zm.275.499c.564 0 .526.1.603.16-.564 0-.526-.1-.603-.16Zm3.134-.36c-.3-.04-1.108 0-1.05-.08.333-.04.878 0 1.05.08Zm1.936-.599c-.16-.12.705 0 .878-.04.039.08-.474.06-.878.04Zm1.09 1.378c.23-.2-1.545-.22-1.41-.4.737.08 1.16.16 1.672.26-.532-.04.475.18-.262.14Zm.5-1.597s-.391.16-.462.06c.115-.04.25-.06.462-.06Zm.858 1.457c.366.04.564 0 .641.04h-.224c.167 0 .244.04.199.08-.366-.04-.564 0-.648-.04.34 0 .167-.06.026-.1l.006.02Zm2.545-2.056c-.212.1-1.352.18-1.75.12.41-.08 1.237-.06 1.75-.12ZM89.492 5.21c-.096-.1.192-.14.282-.2.48.06 1.692.04 1.487.14-.462-.04-1.776-.1-1.763.06h-.006Zm.685-.858c-.179-.08.988-.04.872 0h-.872Zm-.108-.34c.044-.1.525-.08.897-.1-.045.1-.52.08-.897.1ZM92.9 5.57c.347-.1-.96-.06-.615-.16l.647.04c-.224.04.616.14-.032.12Zm-.057-1.438c.84.02 1.243.36.788.3.128-.14-.532-.2-.788-.3Zm1.3.839c-.147.06-1.23.1-1.32.06.488 0 .738-.06 1.32-.06Zm-.787-1.138c.096-.04-.295-.1.025-.1.122.08.98.08 1.032.16l-1.057-.06Zm.55 2.076c.219-.1-1.486-.2-.589-.26-.013.12 1.82.22 1.026.28 0-.14-.141 0-.436-.02Zm1.34-.998c.09-.08-.09-.38.282-.26-.09.08.096.38-.282.26Zm.058.678c-.154.2-.346-.06.026-.1 1.179 0 1.41-.08 1.794-.199.16.12-.423.14-.051.22-.41 0-.801 0-1.301-.02.135.1-.442.04-.462.1h-.006Zm1.98-1.018c-.09-.18-1.865-.379-1.397-.499.205.16 1.878.38 1.397.5Zm-1.416.52c2.09.299-.462 0 0 0Zm1.602-1.338s.02-.22.237-.12c.02.04-.019.24-.237.12Zm.866-.04s.115-.18.23-.08c.16.14-.147.16-.23.08Zm.416 1.078c.135.08.494.28-.474.2.583-.04-.5-.24.474-.2Zm-.166-.26c-.315-.02-.225-.239.269-.239.096.1.128.34-.289.34l.02-.1Zm-.462 1.158c.064-.22.327-.459.34-.579.365.22.102.52-.34.58Zm1.884.42c.244-.06-.91-.18-.185-.18.05.04.839.18.185.18Z"/>
</svg>
