<svg xmlns="http://www.w3.org/2000/svg" width="221" height="7" fill="none">
  <path fill="#76D2C7" d="M29.766 3.813c-.53-.08 2.516-.04.898 0-.735 0-1.85.08-.898 0Zm-6.678-1.158h-.055c.422.12-1.156.26-2.026.2 1.183 0 1.972-.18 2.08-.2ZM56.52 3.833s-3.183.14-3.101.04c.34 0 .503-.02.408-.06h2.693v.02Zm24.279-.839c-1.061-.08 1.482-.08 1.373-.02l-1.373.02Zm-1.143.56.394.08c.626.159-.394-.08-.394-.08Zm2.761-1.657c.068-.12.898-.16 1.333-.26.326.14-.49.2-1.333.26Zm27.176.1c-.163.12-1.891.14-3.278.159.109-.14 2.407-.1 3.278-.16Zm81.323 2.235c-.993-.1 1.55-.04 1.387 0h-1.387Zm-6.964-1.198c.612.08 1.904.22 3.074.18-.544.1 1.85.2-.123.18-.734-.1-1.509-.2-3.481-.26.108-.04-.096-.12.544-.12l-.014.02Zm-4.951-.22c-3.4-.06-1.387-.398 1.551-.259-.041.04.176.08.408.1-1.918-.08-2.013.04-1.959.14v.02Zm-22.075-.099c1.034-.06 1.537.06 3.183.06.829 0 1.115-.18 1.877-.06-.694 0-1.02.06-1.007.14-1.428-.04-1.632.02-3.196-.02.163-.06-.585-.08-.857-.12Zm2.013-.28c.354.08-.816.16-.966.08.748 0 .299-.08.966-.08Zm-6.828.12-.163.04.163-.04Zm-40.328 1.118c.476-.1 2.557-.08 3.645-.12-.027.12-3.564.1-3.645.12Zm.911-1.297c-.68-.08 1.591-.08 1.387 0-.272 0-.557 0-.462.02h-.925v-.02Zm12.772.04c.081-.04-.041-.1.489-.1.123.08 3.251.14 1.728.22 0-.08-1.673-.06-2.217-.12Zm9.806-.44c.313-.08-1.21-.319.15-.319.027.04.109.08.884.08-.408.08.748.28-1.034.24Zm-3.21 0s2.558.06 2.217.16c-.013.02-.557 0-1.156 0l-1.564-.06c.082-.04-.041-.1.503-.08v-.02Zm6.488-.12c-.299-.08 1.823-.12 1.877-.06-.285 0-.544 0-.476.02.789 0 1.17.04 1.347.08l-2.734-.04h-.014Zm4.57.939c-.108-.04.34-.12.49-.06.095.04-.34.12-.49.06Zm7.78-.819c.735-.04 2.653.06 3.156.12-.15.06-1.999-.02-2.299.02.177.1.694.2 1.224.28.667 0 2.326.08 2.299 0 1.877.22-2.299.06-3.169.16.49-.18-1.687-.42-3.006-.66-1.714-.08-.163.14-1.877.06-1.02-.04-.082-.18-.326-.26-1.891-.059-.34.2-1.497.2-1.006 0-.122-.14-.353-.2-1.333 0-1.224.14-1.932.2-1.496 0-.299-.1-1.795-.1.816-.06 2.326-.04 1.945-.199h-1.85l-.068.12c-.925-.06-2.298-.08-2.203-.2-3.292 0-.381.32-.721.54 1.659.099 4.896.239 3.455.398-2.761-.259-5.414-.538-5.495-.938-1.333 0-1.442 0-2.761.02.734.08-.055.04-.068.12-.585-.16-2.353-.06-3.591-.18l-.15.32c-1.727 0-2.203-.06-2.217-.16-.966.1-3.06-.2-3.659 0-.612-.02-.816-.08-.857-.14-.544 0-.408.06-.503.08-1.686-.08-3.659-.16-3.509-.36-1.197.06-1.632.18-1.51.34-1.265-.08.558-.499-.721-.479l-.081.2c-.503.08-.517.12-.095.22-.204.04-1.442 0-.952.12h-2.299c-.177-.12 1.034-.12 2.326-.1.177-.14.068-.26-1.252-.3.531-.04 1.51-.06 1.429-.14-.463.04-1.265.06-2.802.04.326.12-.558.12-.993.18-.952 0-.898-.1-1.36-.14-.449.12-1.469.12-1.918.18-1.102-.12.258-.4-2.231-.44.245.16.408.34 1.279.46-1.782-.08-1.945-.12-3.727-.02-.476-.02-.463-.08-1.387-.08.965-.04 1.115-.16.992-.28-.557 0-.408.06-.489.1-.667 0-1.333 0-1.401-.04-1.333.04.19.18.435.22-.503.1-1.578-.2-1.414.02-.966 0-.096-.14-.912-.16-1.496.08.748.28-.98.32-1.169 0-.897-.12-.91-.2-.463-.08-.816.12-.953.18-1.128-.1-.938-.26-.435-.38-1.374.04-1.306.18-1.89.28-.694-.02-.993-.08-.925-.16-.64 0-.612.18-1.415.06-1.156 0-.136.1 0 .12-1.673.02-.639-.12-.925-.2-.83.04-1.06.02-.925-.06-.367 0-1.781.16-2.325.24.136.06 1.25-.04 1.387.06-.83.08-2.979-.1-4.638 0 .122.14-.408.299.966.359-1.891.12-2.122-.18-1.905-.38-2.394 0-2.203.16-2.72.28-.571-.12-3.51-.1-3.305-.26-1.007 0-.98.08-.884.16-1.306-.04.095-.14-.055-.2-2.516.02-2.856.18-4.08.3-2.72-.1-1.17-.22-1.088-.42-.68-.099-.231.12-.884.12-1.007 0-1.483-.02-1.428-.1-.953.08-2.598.12-5.087.1-1.02-.199-4.53-.219-5.822-.399-.802.04-.98.1-.816.2.585-.14 1.47-.06 1.456.08-.137.04-.817 0-.953-.02-1.101 0 .11.12.544.12 1.605 0 .517-.14 2.272-.1.544.06-.082.02 1.428.06-1.21.16-.517.22.64.359-2.218.14-1.198-.28-4.707-.14 1.007-.18-1.632 0-1.986-.18-.761.2-3.686.08-3.522.3-.925-.02-.232-.18-1.537-.18-.83.04-.204.18-2.217.14-.64-.06-1.646-.08-1.55-.18-1.402.02-2.313.08-2.164.2 1.565-.12 1.741.06 3.306.04-.232.02-.45.06-.395.1-3.305-.04-4.475-.26-5.522-.48 1.265.04 1.455.3 3.428.18-1.905-.08-2.898-.12-2.19-.379-2.054.04-1.605-.12-2.979-.14-1.347.12 2.367.12 1.265.34h-2.843c-.177.14.694.18 1.156.24 1.007 0 1.238-.04 1.85-.04.667 0 .463.08.599.12-2.53.02-3.89-.04-4.475-.18-1.755.14-5.522.22-7.155.04-.612.02-.802.08-.788.14-.68-.02-1.497-.06-2.027-.08-1.632.08-2.367.179-3.428.299-1.333 0-.245-.16-.313-.22h1.47c-.177-.08.067-.14.747-.16-1.577-.1-2.665.08-2.679.16-.762-.04-1.183-.08-.911.04-1.184.02-1.55-.02-2.04-.06-.409.02-.626.06-.817.1-.965 0-1.387-.06-1.673-.14-1.781.06.436.18.884.24-.448 0-.897 0-1.047-.04-.911.06 1.986.08 1.768.2-.544-.04-1.428-.06-2.924-.02-.04.06.558.06.517.02 1.075 0 .449.16.843.22-2.244-.06-1.782-.3-1.265-.46-.68.1-1.754-.02-.054-.04-2.748-.1-4.475.22-6.175.34-1.21-.18 2.367-.4 3.849-.56-3.21.08-6.46.4-5.359.779-1.047 0-.462-.12-.843-.18-1.143.06 0 .2-.912.26.953.1.545-.08 1.81-.06-.136.08-.64.16-1.497.22 2.245.1 1.184.2 1.21.359.803.06 1.225-.26.368-.3 2.068.04.34.2 1.537.3-.19.06-1.251.1-1.591.16-.79 0-1.224 0-1.496-.04 1.496-.06.544-.34-1.17-.34-1.197.04 1.36.04.789.14-4-.04-1.959-.519-1.061-.739 1.931.1 1.455-.28 1.754-.339-3.604 0-2.285.559-5.671.36-1.034.02.095.14-.068.199.639-.04 1.387-.08 1.156-.14 1.346.1-1.048.28-.544.42-2.68-.16-1.537-.16-1.415-.42-.49.04-1.17.06-2.299.08.327.18 1.741.26 2.136.5.898-.02 1.455 0 1.523.04.599-.02.218-.08.19-.14 2.218.12-.135.339 1.28.578.407 0 .407 0 .38-.04h.925c-.803-.1-.98-.24-1.251-.379 2.244.06 2.353.14 2.162.34.83-.02.898-.04 1.768-.06-.83.22.79.439-.081.638-.204.04-1.02 0-1.279.06-.177.02 1.32.16-.707.1l.476.22c1.455-.06 3.21-.2 1.32-.24.285-.1 1.142-.12 2.556-.1.667.2-1.999.3-2.203.48-.53 0-.49-.06-.64-.08-.353.02-.707.06-.897 0-.544.14-1.006.339.435.399-.761.16-.054.2-2.054.3 1.96-.02 2.258.119 2.422.279.421 0 .258-.04.285-.06.177-.1.803.06 1.782 0-1.238-.06-.911-.18-1.401-.24.095-.04.585 0 1.292 0-1.387-.06.177-.24-1.387-.24 1.129-.06 1.237.08 2.122.16.598-.04 1.006-.06 1.605-.08-1.102-.12-1.537-.299-1.823-.459h.136c-.082 0-.816.1-1.278.12-.409-.12 2.121-.36 3.427-.3h.04c.287 0 .504.04.613.08-.517 0-.49-.04-.612-.08h-.041c-1.347.02-2.163.16-.87.24.612 0-.028-.1.693-.1.83.12.34.32 1.796.46-.422 0-.422-.04-.558-.06-.68.14-4.87.339-1.292.459-.095-.08-.231-.16-.816-.18.285-.06.653 0 1.66-.06 0 .08-.45.12 0 .22 2.08-.04-.164-.28 1.346-.22 1.21-.04-.708-.08-.3-.16 1.537.14.87-.04.15-.16h-.15l-.476-.079c.123-.04.436-.08 1.197-.08 1.156.08.721.3 1.252.42 1.7.08-.422-.16-.096-.28.79.16 1.66.3 2.966.4 2.665-.08 2.815.079 4.923.059 1.415 0 .721-.14 1.945-.16 1.673 0 .762.26 1.796.34.19-.18 1.51-.36-.272-.48 1.577 0 .775.16 1.768 0 1.673.06-1.945.28 1.251.28-.04-.1.87-.16.476-.3-.326-.08 2.244.06 1.632-.08 1.21.04.15.3 1.306.34 1.374-.06-.218-.16.027-.32.898 0 .286.14 1.048.14.57-.04.517-.12 1.101-.18 1.728.04 3.115.08 4.271-.08 1.32.08.19.28.422.42.408-.18 1.278.04 1.156-.14 1.618-.04 1.618.1 2.584 0-1.564-.299 2.693-.26 4.108-.379 1.156.06-.095.24-.599.36 2.122-.02 2.272-.18 3.32-.28 1.033.22.734-.04 2.135-.1.884.16 1.795-.06 1.85.12 1.196.04-.49-.16-.177-.26.734-.04 1.088-.1.761-.2 1.564.06-1.183.26 1.89.18.382.1-.38.12-.326.2.626-.08 1.551-.12 2.557-.18.817.16-1.469.1-1.183.22 1.047-.04 2.87-.2 2.666.02 1.55 0 1.17-.14 1.632-.22 1.782.04-.34.26 1.088.38 1.007-.06.925-.22.272-.32 1.007.16 1.932.04 3.523 0-.15.14-2.979.1-2.054.32 1.428.02 2.625.06 3.564.12.762-.14.966-.54-2.394-.48 1.129-.1 2.421-.08 3.033-.16.966.12-1.142.56 1.55.64.382-.2-.04-.26-.176-.48h.898c.816.06.462.22.979.32.884-.16-.952-.38-.64-.6.762.1.653.28 1.442.38.585-.02.803-.06.857-.12.939 0 .218.12.49.16 1.115 0 .843-.1.83-.2.734.1 1.346 0 1.292-.1.517 0 .394.06.476.1 3.128-.08-.64-.299.353-.379-.258.02 1.755.12.925.16.381.08 1.565 0 1.401-.08.45.08 2.87.14 1.728.2 1.033.12 1.224-.1 2.203-.08-.789.14-1.918.26-.83.439 1.646-.06.123-.18.395-.32 1.632 0 1.115.12 1.782.16 1.333 0 2.258-.06 2.203-.18 2.122.04-.802.24 1.347.3.993-.08.925-.22 1.319-.34.558.16 2.149.24 3.523.32 1.972 0 1.686-.14 2.666-.2 0 .16 2.257.2 4.393.22-.422.2-1.673.32-4.461.32v.12c4.855 0 6.651-.6 2.298-.82.34-.02.816-.04 1.347-.06 1.265.06.83.3 1.673.46.408.04 1.632.02 1.306.1.516-.1 1.101-.02 1.346-.12.803.06 1.061.16 2.149.2.231-.08 1.061-.16.993-.34-.911 0-.911.08-1.36.12-.544 0-.884-.04-.871-.1 1.061 0 .68 0 .504-.16-1.252-.04-1.17.04-2.231 0 .163-.08.49-.14 1.374-.16 1.346 0 2.176.22 2.666 0 1.183 0 1.577.08 1.278.2 1.469 0 1.728-.1 2.299-.18 1.156 0-.095.1.381.16.081 0 .734-.04.911-.02 2.135.2 1.836.7 7.399.72.068-.2.354-.42-.217-.58 1.686.04.476.26.748.4 1.564 0 .884-.2 1.401-.12 1.02-.02-.517-.16.108-.26.381.04 2.326.16 1.292.18 1.129.08 1.932 0 3.197-.06-1.306.18.217.22-.163.34.38.06 1.564-.1 1.877-.18 2.502.16 4.556.34 6.093.539.272-.12 2.04-.06 2.693.04 1.537-.1-1.768-.2-2.122-.28-.612 0-.421.08-.517.12-2.992-.44 3.006-.24 3.469-.579 2.203.08-1.741.4 2.502.42 1.796-.22 3.51-.28 4.802-.5.653.06.653.16.789.24-2.748.02-2.802.08-3.782.26 1.116.02 2.163.04 2.721 0 1.006.04.095.179.313.259-1.809 0-2.435.18-4.094.04-.721.08-.096.12.788.2.354-.18 1.061.179 2.666.1.123-.08-.625-.12-1.305-.08.149-.08 1.373-.08 2.312-.1-.259-.16.612-.22.639-.34.816.06 2.136.08 1.7.2 1.075-.12-.761-.42-.149-.54h.925c1.741.1-.055.12-.164.28 2.041.06 5.427.04 4.339.38.653.06.558-.22 1.061-.26.653.12.83.18.925 0 .394 0 1.442.14.367.14.272.06 4.162-.14 4.04.08.87 0 .87-.08 2.285 0 .816-.16-1.415-.28-.231-.36.666.24 4.366.18 4.271.48 1.101 0 .938.08 2.23.08-1.333.259 3.537.239 3.36.458.775 0 .489-.359 1.632-.399 1.074.16 2.951.28 4.76.4 1.551-.16-.775-.4-.992-.56-.98-.04-2.435-.08-2.639-.16.517-.08 1.183.06 1.782.08 1.849.14 2.638.3 3.318.5-.19.24 1.265-.1.531-.12.177-.06 1.183.08 1.414-.02-.04.06 1.32.14 1.197.28.585-.02.966 0 .912.06 1.305.04-.422-.22 1.482-.12 1.333.06-.34.1-.109.16 1.238-.04 1.565.099 1.293.199 1.169 0 .72-.24.244-.38.653.18 2.557.32 4.38.48 1.918-.22-2.163-.44-2.394-.68 2 .08 2.013.22 4.489.28l-.096.16c.313.06.504 0 .49-.06.653-.1 2.204.1 1.904-.08 1.551.06 2.109.16 1.687.3 1.102-.1 1.51 0 2.775.04-.49-.22 3.06-.06 3.849-.26l.911.06c-1.401.02-1.047.18-3.346.18.313.1.748.18 1.741.24.816 0 1.075-.02.993-.1.435 0 1.836.06 1.442-.12.612.02.34.1.394.14.83-.02 1.85-.12 1.034-.22 1.768.06 2.625.16 3.618.24-.775.08-1.673-.16-2.748-.08-.448.08 1.157.1 1.32.16-.027.159-2.503-.08-2.381.119 3.006.22 3.999-.18 6.978.02-1.836 0 .667.12-.095.26.449 0 .367-.02.489-.04.218-.04.585.04 1.374.04-.367-.14 1.51-.16.571-.26 1.415.04 1.184.08 2.721.2-.884-.42 1.931-.56-.816-.859 1.115.14-1.864-.06-3.455-.14 1.986.22-.313.36-.626.42 0 .12 1.007.319.327.359-3.333-.14.476-.54-1.197-.52 1.782-.059 1.523-.159.136-.338.925 0 2.108 0 3.659.12-.789-.26.38-.58-1.102-.8 1.292 0 1.673.04.027-.099 1.768.04.258-.26 1.469-.28-.775-.02-1.102-.08-.843-.219-.558 0-.939 0-.925.06-.381-.08-1.197-.14-1.741-.22 1.877.08-1.02-.24 1.02-.26.449.06.979.28.354.26.884.08 3.21-.02 1.89-.2-1.414.06-2.312-.179-4.434-.259.898.18-1.945.34-1.115.5l-.898-.06c-.245-.08-.789-.2.966-.12-.952-.06-.993-.14-.816-.24-1.32-.08-.816.04-.939.1-.897-.28-4.148-.52-2.366-.799-1.796-.08-3.156 0-3.088-.16-1.782 0-.014.16 1.251.24-.122.08-.884.1-1.006.2l-2.68-.08c.096-.08 2.843-.18 1.469-.2-2.543.08-1.36.36-1.713.68-1.034-.28-.504-.56-1.347-.9-2.19-.139-3.455-.199-4.325-.339-.395-.06 1.346-.24-1.184-.279.204.2.789.4 2.394.539-1.986.06-2.162.3-1.183.479 2.557.08 3.672.22 2.557.32-.653-.04.15-.04-.381-.14-4.543-.16-3.55-.5-3.237-.699-1.714.02-1.496-.08-1.687-.2-2.23-.08-2.801 0-4.08 0 2.217.24-2.911.24-2.176.54-2.176-.08.34-.16-.259-.3-1.061-.04-1.006.04-2.257-.02-.055-.14 1.686-.04 2.72 0-.082-.16.326-.26.693-.36.572.06.817.12 1.769.08-.068-.04-.436-.02-.449 0-.748-.18.258-.279-.612-.459l-1.768-.04c.652.06 1.482.12 1.659.2-.49.08-.476.22-1.931.2 1.305.3-3.999.2-5.278.359-2.04-.2-.041-.26-.557-.519-.572 0-1.17.24-2.503.26-1.306 0-1.143-.08-2.258-.08-1.17.14-1.483.339-2.639.479-2.883-.1-3.386-.12-4.407-.32 2.081.04 1.837.16 4.04.18-.027-.08.014-.16 1.02-.14-.272-.12-4.175-.08-3.074-.26-1.414-.04-1.333.04-1.904.08-1.564-.08-.775-.12-1.278-.179-2.177 0-3.374-.28-4.829-.4.571.12 1.224.38 3.02.36-.681.16 1.278.12 1.618.36-1.292-.08-2.108-.18-3.074-.26-1.034 0-.285.18-.612.24-.68-.1-.435-.24-.694-.36-.462-.12-.557.08-.53.12-1.387 0-.775-.08-.843-.14-1.184 0-2.285.02-3.251.04-.531-.02.122-.18-1.7-.22-1.075.08 1.238.18.721.34-1.401 0-1.02-.22-1.374-.02-1.292-.22-5.577-.3-6.134-.56-1.034 0 .53.16-.136.26l.176.02Zm49.292 1.238c.939-.2-.381-.26-1.578-.42 2.476.08 3.251.34 1.578.42Zm1.863.798s.259-.18.49-.08c.34.14-.326.14-.49.08Zm-53.984-1.077.041-.06h.939c.734.08.326.16-.49.04-.041 0-.082.04-.476.02h-.014Zm-4.243-.64s.258-.179.503-.08c.326.12-.326.16-.503.08Zm-94.571-.319s-.163-.1.843-.1l.04.06c-.462 0-.53.02-.897.04h.014Zm-36.629.7c-1.469-.1-.789-.34-.367-.44 1.183-.04 2.856.08 1.7.14-.082-.04-1.374-.02-1.4 0 .57.04.067.359.067.28v.02Zm1.7.638c-.15-.08.599-.1.096-.2 1.115-.02 2.19-.04 2.393.04-2.393.04-.612.1-2.489.16Zm.939.499c.98 0-.952-.14.326-.06.218.06.707-.02.952 0-.34 0-.476.04-.34.06h1.782c-.19.06 1.986.1.775.16-.476-.12-2.598-.1-3.495-.18v.02Zm.707-.1s-2.027-.04-.626-.08c-.068.08 1.918-.1 2.286 0-.667 0-1.66 0-1.728.06.245 0 .558 0 .054.04l.014-.02Zm2.68.48c-.204-.06-.694.02-.925 0 .857-.04-.163-.16 1.523-.14-.136.06 0 .14-.598.16v-.02Zm-.748-1.458c-1.551.08-.463-.1-1.551-.08.64-.26-1.782-.719-.082-.858.45.34.803.639 1.633.938Zm.394.758c-.286-.12-.38-.22.422-.299.23.12.176.22-.422.3Zm2.163 1.218c-.19-.04.054-.12.326-.06.19.04-.054.12-.326.06Zm1.89-.18c-.707-.08 1.537-.14.327-.06.108.04.108.12-.327.06Zm-2.557-2.076c1.034-.02 1.755 0 1.945.04-1.034.02-1.74 0-1.945-.04Zm2.775 1.398c-.19-.08-.34-.16.625-.16-.095.06.898.18-.625.16Zm2.353.898c-.136-.08.585-.1.122-.2.87.02 2.054.02 2.353.1-1.373 0-1.605.06-2.475.1Zm-3.278-2.315c-1.007-.16 1.333-.32 2.407-.28-.544 0-.435.06-.326.1-1.075 0-1.741.04-1.768.08 0 .04.23.08-.313.1Zm2.843 1.497c.761 0 1.17 0 1.428.04-.762 0-1.156 0-1.428-.04Zm1.768.26c-.123-.04-.422-.22.245-.14.122.04.408.219-.245.14Zm-2.87-2.157c-.109-.02-.109-.18.326-.1.599.12-.013.16-.326.1Zm4.434 2.615c-.177-.04.081-.12.34-.06.177.04-.082.12-.34.06Zm.884-.3c-.19-.04.095-.119.34-.059.177.04-.095.12-.34.06Zm-2.611-2.115s-.218-.08.326-.1c.734.06 2.299.04 2.543.14-1.441.04-1.183-.08-2.87-.04Zm5.74 1.816-.082-.06h.87l.082.06h-.87Zm-.164-2.255h1.401c-.353.18 3.128.04 3.115.22-2.23 0-3.482-.1-4.516-.22Zm13.452 2.335c.286.22-3.836 0-4.27.1.067-.08.298-.14 1.142-.18.23.12 1.673.14 3.142.08h-.014Zm-.177.28c.585.12-2.924.16-2.584 0h2.584Zm-2.258-2.016c-.272-.1-2.502-.04-2.489-.16 1.034 0 3.686.08 2.49.16Zm-.122 1.317-.122-.12c1.672-.04 1.822.14.122.12Zm.204-.26c.762 0 1.156 0 1.387.06-.761 0-1.156 0-1.387-.06Zm2.924.26c-.408 0-.38-.18.395-.06.136 0-.123.06-.395.06Zm1.945-1.477c.096-.04-2.149 0-.965-.06-.205.04 2.502-.04.965.06Zm.843 1.597c-.163-.04.177-.12.395-.06.15.04-.177.12-.395.06Zm.218-.28c1.034-.08 2.884 0 1.864.08.108-.08-1.7-.02-1.864-.08Zm4.883.54c-1.4-.18 1.034-.08 0 0Zm.789-1.438c.775 0 1.17 0 1.414.06-.788 0-1.183 0-1.414-.06Zm.612.898c.449-.1-.748-.08-.98-.12 1.837.04 2.816 0 3.646.08 0 0 .34-.04.449 0-.735 0-.19.08-.83.1-.367-.06-1.428-.12-2.271-.06h-.014Zm1.102-1.756c-1.075 0-.585-.2.816-.16-.163.06.748.18-.816.16Zm1.904 2.255c-.082-.04-.218-.22.367-.12.082.04.218.22-.367.12Zm2.122-.18c-.082-.04-.204-.219.367-.119.082.04.204.22-.367.12Zm1.496.28-.054-.1c.53 0 1.265 0 1.346.04-.626.04-.72.04-1.292.06Zm-.354-1.397c.857.02 1.47-.1 1.823 0-.272 0-1.7.08-1.823 0Zm2.054 1.277c.381-.1-1.482-.22-.15-.279.218.06 1.225.24.15.28Zm1.279-.1c-.123-.12.013-.199.761-.259.313.08-.448.24.572.26.639-.1 1.591 0 2.162-.14-.952.12-1.428-.12-.503-.12 1.102.04.3.06.925.1.476-.04 2.122-.14 2.652-.06-.83 0-.231.1-.843.12-.775 0-1.374 0-1.782-.02.109.12-2.924.28-2 .479-.883-.1 0-.34-1.944-.34v-.02Zm2.04-1.337c2.897-.04 1.06.1 0 0Zm5.073 1.358c-.87-.1-1.142-.2.79-.26 1.577.08-.069.16-.79.26Zm4.774-1.917c.204.12-2.502.2-3.155.16.952-.06.952-.18 3.155-.16Zm-.272.64c-1.142.039-2.625-.06-1.4-.1.067.06 1.51.02 1.4.1Zm-1.877-.18c1.81-.12 1.102.1 0 0Zm5.373-.44c.87 0-.272-.06.435-.06.027.02.082.04.463.04.108-.04 1.006-.04 1.373-.06.599.1-1.768.16-2.285.08h.014Zm.72 1.178c.6 0 1.334-.12 1.796-.02-.598 0-1.346.12-1.795.02Zm6.802.659c-2.272.16-1.673-.36-1.334-.04.64-.04 1.075-.04 1.334.04Zm1.74-.699c-1.142 0-2.72.2-2.693.06.64 0 3.537-.14 2.693-.06Zm7.29-1.258c.028.14-2.42.26-3.699.22 1.728-.04 2.612-.14 3.7-.22Zm-1.006 1.518c.204-.1-2.462-.16-1.333-.22.3.06 2.558.16 1.333.22Zm2.653.399s.176-.18.448-.1c.381.12-.258.16-.448.1Zm2.407-1.258c1.863.2-.762.08 0 0Zm2.965-1.158c.381.06-.435.2-.938.1.761 0 .272-.08.938-.1Zm4.325 1.178s-2.448-.14-1.319-.16c.286.04 2.775.12 1.319.16Zm1.157.739c-1.034-.06-1.945 0-2.245-.04.544-.04.844-.08 2.272-.04l-.027.1v-.02Zm1.06-.54c.3-.08-.489-.239.531-.259-.122.14 1.292 0 1.823 0l-.055.16c-1.686-.04-1.482.06-2.312.08l.013.02Zm2.68-1.097c-1.156.04-1.319-.12-.422-.1.014 0 .055.04.449.04l-.027.06Zm2.707 2.455s-.014-.16.965-.14c-.231.06.531.2-.965.14Zm2.312-.1c-.667-.08 1.564-.08 1.374 0-.272 0-.544 0-.476.02h-.898v-.02Zm.68-.579s-.367.04-.449 0c.571 0 .639-.04 1.374 0 .204.2 2.598.26 3.455.42-2.054-.1-3.02-.26-4.38-.4v-.02Zm4.733-1.477c-1.387.06-3.155.2-4.162.12.231 0 2.163-.2 4.162-.12Zm-1.047 1.358c-.571 0-2.244.06-2.271 0 .353 0 .53-.02.476-.06-.259 0-.517-.04 0-.04-.354.08 2.149 0 1.781.08l.014.02Zm-1.483-.779c-.244-.08.232-.12 1.401-.08.272.08-.965.06-1.401.08Zm.912 2.116c-1.483.06-2.761-.12-3.074-.22 1.809.04 3.223.08 3.074.22Zm2.312-1.158c-1.007-.06-1.727.06-1.809-.02.993-.02 1.115-.12 1.891-.18.816.06-.408.08-.082.2Zm2.965-1.557c-.53.1-2.38-.12-1.333-.12.068.04.707.04 1.36.04l-.027.06v.02Zm-.558 2.256c-1.441 0-2.652-.16-1.741-.18.082.04.504.02.912 0-.109.08.653.1.829.16v.02Zm-1.088-.579c.816.04 1.537-.08 1.796 0-.286 0-1.782.06-1.796 0Zm4.598-.14c-1.796 0-1.415-.16.054-.12l-.054.12Zm1.387-1.038s.245-.18.503-.08c.34.12-.313.16-.503.08Zm.68 1.478c-.721-.14 4.366 0 2.258.04-.082-.08-1.972-.04-2.258-.04Zm1.102.519c-1.17 0-1.619-.04-1.306-.12.014-.02.544 0 1.142 0 .599 0 1.265.04 1.578 0-.462.14 1.211.18.748.34-1.659-.02-.408-.2-2.162-.22Zm-.952-1.837c.625-.04 1.7 0 1.795.06-.626.04-1.374 0-1.795-.06Zm8.922.46c.109-.06-3.754-.06-1.768-.12.394.08 1.768 0 3.169.04-.081.04.027.1-.503.08-.082-.02.027-.06-.422-.06-.122.02-.041.06-.489.06h.013Zm-1.918 1.077c.232-.06.857-.1 1.877-.1.517.14-1.278.06-1.877.1Zm3.945-.579c-.068-.02.245-.18.503-.08.326.12-.326.16-.503.08Zm.081.699s.3-.12.98-.14c.027.08-.3.12-.98.14Zm5.931-1.697c-1.524-.14-2.557.22-4.149.02 1.7 0 1.782-.18 4.203-.12l-.054.1Zm-3.51.58c1.034 0 1.701.039 1.769.099-1.034 0-1.701-.04-1.769-.1Zm3.414.438s.055-.22.517-.12c.041.04-.054.22-.517.12Zm5.019 0c-.775.08-2.557.22-3.305.2 1.252-.06 1.7-.18 3.305-.2Zm-.34-.2c-.843-.02-2.747 0-2.217-.1l2.258.04-.041.06Zm.327 1.059c-.993-.16-3.387-.42-2.884-.56 1.007.16 4.598.36 2.884.56ZM151.2 3.114c-.096-.08.68-.1 1.863-.06.109.04.612.08.381.14-1.292 0-1.143-.06-2.244-.08Zm5.005-.738c-.095-.04.354-.12.49-.06.095.04-.354.12-.49.06Zm.027 2.335c.463-.08-2.747-.12-.816-.18.136.06 2.258.24.816.18Zm.776-.559c.027-.18 2.298-.08 3.25-.1-.326.1-2.557.04-3.25.1Zm3.685.699c.313-.22-3.169-.04-3.563-.14.435-.1 1.891-.12 3.264-.12.857.06-.897.16.844.12-.272.04.435.18-.545.14Zm-2.461-1.218c1.129.02 1.428-.02 2.298 0 .272.08-2.026.1-2.298 0Zm6.229-.459s-.558-.06-.394-.1h1.36l-.055.12h-.897l-.014-.02Zm.204.4c1.129 0 2.204.04 2.231.12-.803-.04-1.864-.06-2.231-.12Zm2.448-.24c-.952 0-1.985-.12-.843-.12.082.04.707.06.843.12Zm4.788 1.138c2.924.04.925.12 0 0Zm.585.499c1.197 0 1.115.1 1.278.16-1.196 0-1.115-.1-1.278-.16Zm6.651-.36c-.639-.04-2.353 0-2.231-.08.708-.04 1.864 0 2.231.08Zm4.108-.599c-.34-.12 1.496 0 1.863-.04.082.08-1.006.06-1.863.04Zm2.312 1.378c.49-.2-3.278-.22-2.992-.4 1.564.08 2.461.16 3.55.26-1.129-.04 1.006.18-.558.14Zm1.061-1.597s-.83.16-.979.06c.244-.04.53-.06.979-.06Zm1.822 1.457c.776.04 1.197 0 1.361.04h-.476c.353 0 .516.04.421.08-.775-.04-1.197 0-1.374-.04.721 0 .354-.06.055-.1l.013.02Zm5.4-2.056c-.449.1-2.87.18-3.713.12.871-.08 2.625-.06 3.713-.12Zm-4.461 2.016c-.204-.1.408-.14.598-.2 1.021.06 3.591.04 3.156.14-.979-.04-3.768-.1-3.74.06h-.014Zm1.455-.858c-.381-.08 2.095-.04 1.85 0h-1.85Zm-.231-.34c.095-.1 1.115-.08 1.904-.1-.095.1-1.101.08-1.904.1Zm6.012 1.558c.734-.1-2.04-.06-1.306-.16l1.374.04c-.476.04 1.306.14-.068.12Zm-.122-1.438c1.781.02 2.638.36 1.672.3.273-.14-1.128-.2-1.672-.3Zm2.761.839c-.313.06-2.612.1-2.802.06 1.033 0 1.564-.06 2.802-.06Zm-1.673-1.138c.204-.04-.626-.1.054-.1.258.08 2.081.08 2.19.16l-2.244-.06Zm1.169 2.076c.463-.1-3.155-.2-1.251-.26-.027.12 3.863.22 2.176.28 0-.14-.299 0-.925-.02Zm2.843-.998c.19-.08-.19-.38.599-.26-.191.08.204.38-.599.26Zm.122.678c-.326.2-.734-.06.055-.1 2.503 0 2.992-.08 3.808-.199.34.12-.897.14-.109.22-.87 0-1.7 0-2.761-.02.286.1-.938.04-.979.1h-.014Zm4.203-1.018c-.19-.18-3.958-.379-2.965-.499.435.16 3.985.38 2.965.5Zm-3.006.52c4.434.299-.979 0 0 0Zm3.401-1.338s.041-.22.503-.12c.041.04-.041.24-.503.12Zm1.836-.04s.245-.18.49-.08c.34.14-.313.16-.49.08Zm.884 1.078c.286.08 1.047.28-1.006.2 1.237-.04-1.061-.24 1.006-.2Zm-.354-.26c-.666-.02-.476-.239.572-.239.204.1.272.34-.612.34l.04-.1ZM207.7 5.69c.136-.22.694-.459.721-.579.775.22.218.52-.721.58Zm3.999.42c.517-.06-1.931-.18-.395-.18.109.04 1.782.18.395.18Z"/>
</svg>
